<svg xmlns="http://www.w3.org/2000/svg" xmlns:xlink="http://www.w3.org/1999/xlink" version="1.1" class="marks" width="892" height="473" viewBox="0 0 892 473"><rect width="892" height="473" fill="white"/><g fill="none" stroke-miterlimit="10" transform="translate(186,27)"><g class="mark-group role-frame root" role="graphics-object" aria-roledescription="group mark container"><g transform="translate(0,0)"><path class="background" aria-hidden="true" d="M0.5,0.5h700v400h-700Z" stroke="#ddd"/><g><g class="mark-group role-axis" aria-hidden="true"><g transform="translate(0.5,400.5)"><path class="background" aria-hidden="true" d="M0,0h0v0h0Z" pointer-events="none"/><g><g class="mark-rule role-axis-grid" pointer-events="none"><line transform="translate(0,0)" x2="0" y2="-400" stroke="#ddd" stroke-width="1" opacity="1"/><line transform="translate(35,0)" x2="0" y2="-400" stroke="#ddd" stroke-width="1" opacity="1"/><line transform="translate(70,0)" x2="0" y2="-400" stroke="#ddd" stroke-width="1" opacity="1"/><line transform="translate(105,0)" x2="0" y2="-400" stroke="#ddd" stroke-width="1" opacity="1"/><line transform="translate(140,0)" x2="0" y2="-400" stroke="#ddd" stroke-width="1" opacity="1"/><line transform="translate(175,0)" x2="0" y2="-400" stroke="#ddd" stroke-width="1" opacity="1"/><line transform="translate(210,0)" x2="0" y2="-400" stroke="#ddd" stroke-width="1" opacity="1"/><line transform="translate(245,0)" x2="0" y2="-400" stroke="#ddd" stroke-width="1" opacity="1"/><line transform="translate(280,0)" x2="0" y2="-400" stroke="#ddd" stroke-width="1" opacity="1"/><line transform="translate(315,0)" x2="0" y2="-400" stroke="#ddd" stroke-width="1" opacity="1"/><line transform="translate(350,0)" x2="0" y2="-400" stroke="#ddd" stroke-width="1" opacity="1"/><line transform="translate(385,0)" x2="0" y2="-400" stroke="#ddd" stroke-width="1" opacity="1"/><line transform="translate(420,0)" x2="0" y2="-400" stroke="#ddd" stroke-width="1" opacity="1"/><line transform="translate(455,0)" x2="0" y2="-400" stroke="#ddd" stroke-width="1" opacity="1"/><line transform="translate(490,0)" x2="0" y2="-400" stroke="#ddd" stroke-width="1" opacity="1"/><line transform="translate(525,0)" x2="0" y2="-400" stroke="#ddd" stroke-width="1" opacity="1"/><line transform="translate(560,0)" x2="0" y2="-400" stroke="#ddd" stroke-width="1" opacity="1"/><line transform="translate(595,0)" x2="0" y2="-400" stroke="#ddd" stroke-width="1" opacity="1"/><line transform="translate(630,0)" x2="0" y2="-400" stroke="#ddd" stroke-width="1" opacity="1"/><line transform="translate(665,0)" x2="0" y2="-400" stroke="#ddd" stroke-width="1" opacity="1"/><line transform="translate(700,0)" x2="0" y2="-400" stroke="#ddd" stroke-width="1" opacity="1"/></g></g><path class="foreground" aria-hidden="true" d="" pointer-events="none" display="none"/></g></g><g class="mark-group role-axis" role="graphics-symbol" aria-roledescription="axis" aria-label="X-axis titled 'Readmission Rate' for a linear scale with values from 0.0 to 1.0"><g transform="translate(0.5,400.5)"><path class="background" aria-hidden="true" d="M0,0h0v0h0Z" pointer-events="none"/><g><g class="mark-rule role-axis-tick" pointer-events="none"><line transform="translate(0,0)" x2="0" y2="5" stroke="#888" stroke-width="1" opacity="1"/><line transform="translate(35,0)" x2="0" y2="5" stroke="#888" stroke-width="1" opacity="1"/><line transform="translate(70,0)" x2="0" y2="5" stroke="#888" stroke-width="1" opacity="1"/><line transform="translate(105,0)" x2="0" y2="5" stroke="#888" stroke-width="1" opacity="1"/><line transform="translate(140,0)" x2="0" y2="5" stroke="#888" stroke-width="1" opacity="1"/><line transform="translate(175,0)" x2="0" y2="5" stroke="#888" stroke-width="1" opacity="1"/><line transform="translate(210,0)" x2="0" y2="5" stroke="#888" stroke-width="1" opacity="1"/><line transform="translate(245,0)" x2="0" y2="5" stroke="#888" stroke-width="1" opacity="1"/><line transform="translate(280,0)" x2="0" y2="5" stroke="#888" stroke-width="1" opacity="1"/><line transform="translate(315,0)" x2="0" y2="5" stroke="#888" stroke-width="1" opacity="1"/><line transform="translate(350,0)" x2="0" y2="5" stroke="#888" stroke-width="1" opacity="1"/><line transform="translate(385,0)" x2="0" y2="5" stroke="#888" stroke-width="1" opacity="1"/><line transform="translate(420,0)" x2="0" y2="5" stroke="#888" stroke-width="1" opacity="1"/><line transform="translate(455,0)" x2="0" y2="5" stroke="#888" stroke-width="1" opacity="1"/><line transform="translate(490,0)" x2="0" y2="5" stroke="#888" stroke-width="1" opacity="1"/><line transform="translate(525,0)" x2="0" y2="5" stroke="#888" stroke-width="1" opacity="1"/><line transform="translate(560,0)" x2="0" y2="5" stroke="#888" stroke-width="1" opacity="1"/><line transform="translate(595,0)" x2="0" y2="5" stroke="#888" stroke-width="1" opacity="1"/><line transform="translate(630,0)" x2="0" y2="5" stroke="#888" stroke-width="1" opacity="1"/><line transform="translate(665,0)" x2="0" y2="5" stroke="#888" stroke-width="1" opacity="1"/><line transform="translate(700,0)" x2="0" y2="5" stroke="#888" stroke-width="1" opacity="1"/></g><g class="mark-text role-axis-label" pointer-events="none"><text text-anchor="start" transform="translate(0,18)" font-family="sans-serif" font-size="14px" fill="#000" opacity="1">0.00</text><text text-anchor="middle" transform="translate(35,18)" font-family="sans-serif" font-size="14px" fill="#000" opacity="0">0.05</text><text text-anchor="middle" transform="translate(70,18)" font-family="sans-serif" font-size="14px" fill="#000" opacity="1">0.10</text><text text-anchor="middle" transform="translate(105,18)" font-family="sans-serif" font-size="14px" fill="#000" opacity="0">0.15</text><text text-anchor="middle" transform="translate(140,18)" font-family="sans-serif" font-size="14px" fill="#000" opacity="1">0.20</text><text text-anchor="middle" transform="translate(175,18)" font-family="sans-serif" font-size="14px" fill="#000" opacity="0">0.25</text><text text-anchor="middle" transform="translate(210,18)" font-family="sans-serif" font-size="14px" fill="#000" opacity="1">0.30</text><text text-anchor="middle" transform="translate(244.99999999999997,18)" font-family="sans-serif" font-size="14px" fill="#000" opacity="0">0.35</text><text text-anchor="middle" transform="translate(280,18)" font-family="sans-serif" font-size="14px" fill="#000" opacity="1">0.40</text><text text-anchor="middle" transform="translate(315,18)" font-family="sans-serif" font-size="14px" fill="#000" opacity="0">0.45</text><text text-anchor="middle" transform="translate(350,18)" font-family="sans-serif" font-size="14px" fill="#000" opacity="1">0.50</text><text text-anchor="middle" transform="translate(385.00000000000006,18)" font-family="sans-serif" font-size="14px" fill="#000" opacity="0">0.55</text><text text-anchor="middle" transform="translate(420,18)" font-family="sans-serif" font-size="14px" fill="#000" opacity="1">0.60</text><text text-anchor="middle" transform="translate(455,18)" font-family="sans-serif" font-size="14px" fill="#000" opacity="0">0.65</text><text text-anchor="middle" transform="translate(489.99999999999994,18)" font-family="sans-serif" font-size="14px" fill="#000" opacity="1">0.70</text><text text-anchor="middle" transform="translate(525,18)" font-family="sans-serif" font-size="14px" fill="#000" opacity="0">0.75</text><text text-anchor="middle" transform="translate(560,18)" font-family="sans-serif" font-size="14px" fill="#000" opacity="1">0.80</text><text text-anchor="middle" transform="translate(595,18)" font-family="sans-serif" font-size="14px" fill="#000" opacity="0">0.85</text><text text-anchor="middle" transform="translate(630,18)" font-family="sans-serif" font-size="14px" fill="#000" opacity="1">0.90</text><text text-anchor="middle" transform="translate(665,18)" font-family="sans-serif" font-size="14px" fill="#000" opacity="0">0.95</text><text text-anchor="end" transform="translate(700,18)" font-family="sans-serif" font-size="14px" fill="#000" opacity="1">1.00</text></g><g class="mark-rule role-axis-domain" pointer-events="none"><line transform="translate(0,0)" x2="700" y2="0" stroke="#888" stroke-width="1" opacity="1"/></g><g class="mark-text role-axis-title" pointer-events="none"><text text-anchor="middle" transform="translate(350,38)" font-family="sans-serif" font-size="16px" font-weight="bold" fill="#000" opacity="1">Readmission Rate</text></g></g><path class="foreground" aria-hidden="true" d="" pointer-events="none" display="none"/></g></g><g class="mark-group role-axis" role="graphics-symbol" aria-roledescription="axis" aria-label="Y-axis titled 'Risk Factor' for a discrete scale with 9 values: weight, max_glu_serum, discharge_disposition_id, admission_type_id, gender, ending with race"><g transform="translate(0.5,0.5)"><path class="background" aria-hidden="true" d="M0,0h0v0h0Z" pointer-events="none"/><g><g class="mark-rule role-axis-tick" pointer-events="none"><line transform="translate(0,22)" x2="-5" y2="0" stroke="#888" stroke-width="1" opacity="1"/><line transform="translate(0,66)" x2="-5" y2="0" stroke="#888" stroke-width="1" opacity="1"/><line transform="translate(0,111)" x2="-5" y2="0" stroke="#888" stroke-width="1" opacity="1"/><line transform="translate(0,155)" x2="-5" y2="0" stroke="#888" stroke-width="1" opacity="1"/><line transform="translate(0,200)" x2="-5" y2="0" stroke="#888" stroke-width="1" opacity="1"/><line transform="translate(0,244)" x2="-5" y2="0" stroke="#888" stroke-width="1" opacity="1"/><line transform="translate(0,288)" x2="-5" y2="0" stroke="#888" stroke-width="1" opacity="1"/><line transform="translate(0,333)" x2="-5" y2="0" stroke="#888" stroke-width="1" opacity="1"/><line transform="translate(0,377)" x2="-5" y2="0" stroke="#888" stroke-width="1" opacity="1"/></g><g class="mark-text role-axis-label" pointer-events="none"><text text-anchor="end" transform="translate(-7,25.72222222222222)" font-family="sans-serif" font-size="14px" fill="#000" opacity="1">weight</text><text text-anchor="end" transform="translate(-7,70.16666666666666)" font-family="sans-serif" font-size="14px" fill="#000" opacity="1">max_glu_serum</text><text text-anchor="end" transform="translate(-7,114.61111111111111)" font-family="sans-serif" font-size="14px" fill="#000" opacity="1">discharge_disposition_id</text><text text-anchor="end" transform="translate(-7,159.05555555555554)" font-family="sans-serif" font-size="14px" fill="#000" opacity="1">admission_type_id</text><text text-anchor="end" transform="translate(-7,203.5)" font-family="sans-serif" font-size="14px" fill="#000" opacity="1">gender</text><text text-anchor="end" transform="translate(-7,247.94444444444446)" font-family="sans-serif" font-size="14px" fill="#000" opacity="1">age</text><text text-anchor="end" transform="translate(-7,292.38888888888886)" font-family="sans-serif" font-size="14px" fill="#000" opacity="1">A1Cresult</text><text text-anchor="end" transform="translate(-7,336.8333333333333)" font-family="sans-serif" font-size="14px" fill="#000" opacity="1">admission_source_id</text><text text-anchor="end" transform="translate(-7,381.27777777777777)" font-family="sans-serif" font-size="14px" fill="#000" opacity="1">race</text></g><g class="mark-rule role-axis-domain" pointer-events="none"><line transform="translate(0,0)" x2="0" y2="400" stroke="#888" stroke-width="1" opacity="1"/></g><g class="mark-text role-axis-title" pointer-events="none"><text text-anchor="middle" transform="translate(-164.3232421875,200) rotate(-90) translate(0,-3)" font-family="sans-serif" font-size="16px" font-weight="bold" fill="#000" opacity="1">Risk Factor</text></g></g><path class="foreground" aria-hidden="true" d="" pointer-events="none" display="none"/></g></g><g class="mark-symbol role-mark layer_0_layer_0_layer_0_marks" role="graphics-object" aria-roledescription="symbol mark container"><path aria-label="Readmission Rate: 0.180124223602; Risk Factor: age; factor: age" role="graphics-symbol" aria-roledescription="point" transform="translate(126.08695652173914,244.44444444444446)" d="M2.739,0A2.739,2.739,0,1,1,-2.739,0A2.739,2.739,0,1,1,2.739,0" stroke="#72b7b2" stroke-width="2" opacity="0.7"/><path aria-label="Readmission Rate: 0.346875; Risk Factor: admission_type_id; factor: admission_type_id" role="graphics-symbol" aria-roledescription="point" transform="translate(242.8125,155.55555555555554)" d="M2.739,0A2.739,2.739,0,1,1,-2.739,0A2.739,2.739,0,1,1,2.739,0" stroke="#e45756" stroke-width="2" opacity="0.7"/><path aria-label="Readmission Rate: 0; Risk Factor: discharge_disposition_id; factor: discharge_disposition_id" role="graphics-symbol" aria-roledescription="point" transform="translate(0,111.11111111111111)" d="M2.739,0A2.739,2.739,0,1,1,-2.739,0A2.739,2.739,0,1,1,2.739,0" stroke="#54a24b" stroke-width="2" opacity="0.7"/><path aria-label="Readmission Rate: 0.137844611529; Risk Factor: discharge_disposition_id; factor: discharge_disposition_id" role="graphics-symbol" aria-roledescription="point" transform="translate(96.49122807017544,111.11111111111111)" d="M2.739,0A2.739,2.739,0,1,1,-2.739,0A2.739,2.739,0,1,1,2.739,0" stroke="#54a24b" stroke-width="2" opacity="0.7"/><path aria-label="Readmission Rate: 0.0833333333333; Risk Factor: discharge_disposition_id; factor: discharge_disposition_id" role="graphics-symbol" aria-roledescription="point" transform="translate(58.33333333333333,111.11111111111111)" d="M2.739,0A2.739,2.739,0,1,1,-2.739,0A2.739,2.739,0,1,1,2.739,0" stroke="#54a24b" stroke-width="2" opacity="0.7"/><path aria-label="Readmission Rate: 0.730158730159; Risk Factor: discharge_disposition_id; factor: discharge_disposition_id" role="graphics-symbol" aria-roledescription="point" transform="translate(511.1111111111111,111.11111111111111)" d="M2.739,0A2.739,2.739,0,1,1,-2.739,0A2.739,2.739,0,1,1,2.739,0" stroke="#54a24b" stroke-width="2" opacity="0.7"/></g><g class="mark-rule role-mark layer_0_layer_0_layer_1_layer_0_marks" aria-hidden="true"><line transform="translate(223.58117025956884,377.77777777777777)" x2="30.195532601374282" y2="0" stroke="black"/><line transform="translate(315.8516629476145,200)" x2="3.1503035363288063" y2="0" stroke="black"/><line transform="translate(267.438494934877,244.44444444444446)" x2="17.394000210270633" y2="0" stroke="black"/><line transform="translate(319.8216477797279,22.22222222222222)" x2="47.173720515505806" y2="0" stroke="black"/><line transform="translate(285.91340293603264,155.55555555555554)" x2="9.184528053870622" y2="0" stroke="black"/><line transform="translate(281.82064481170414,111.11111111111111)" x2="13.810423149460917" y2="0" stroke="black"/><line transform="translate(162.4,333.3333333333333)" x2="65.93642134259196" y2="0" stroke="black"/><line transform="translate(318.05929919137463,66.66666666666666)" x2="9.488868922831216" y2="0" stroke="black"/><line transform="translate(291.92384769539075,288.88888888888886)" x2="8.563259782944726" y2="0" stroke="black"/></g><g class="mark-rule role-mark layer_0_layer_0_layer_1_layer_1_marks" aria-hidden="true"><line transform="translate(313.5668126387495,377.77777777777777)" x2="14.968384932834851" y2="0" stroke="black"/><line transform="translate(325.302573556601,200)" x2="3.1503035363287495" y2="0" stroke="black"/><line transform="translate(321.6137668664618,244.44444444444446)" x2="16.276562842208364" y2="0" stroke="black"/><line transform="translate(399.31862068965523,22.22222222222222)" x2="28.226289489985504" y2="0" stroke="black"/><line transform="translate(329.2992384324432,155.55555555555554)" x2="43.390234257029476" y2="0" stroke="black"/><line transform="translate(352.9560810810811,111.11111111111111)" x2="75.10147287575342" y2="0" stroke="black"/><line transform="translate(326.38098193521216,333.3333333333333)" x2="121.44510502130959" y2="0" stroke="black"/><line transform="translate(362.9014299109236,66.66666666666666)" x2="25.864392873886516" y2="0" stroke="black"/><line transform="translate(312.65566074845896,288.88888888888886)" x2="3.6052934871788125" y2="0" stroke="black"/></g><g class="mark-rect role-mark layer_0_layer_1_layer_0_marks" role="graphics-object" aria-roledescription="rect mark container"><path aria-label="Readmission Rate: 0.362538146944; Risk Factor: race; upper_box_readmission_rate: 0.447952589484; factor: race; Max of Readmission Rate: 0.469335996531; Q3 of Readmission Rate: 0.447952589484; Median of Readmission Rate: 0.405837132569; Q1 of Readmission Rate: 0.362538146944; Min of Readmission Rate: 0.319401671799" role="graphics-symbol" aria-roledescription="box" d="M253.77670286094312,362.77777777777777h59.79010977780641v30h-59.79010977780641Z" fill="#ff9da6"/><path aria-label="Readmission Rate: 0.455717094977; Risk Factor: gender; upper_box_readmission_rate: 0.464717962224; factor: gender; Max of Readmission Rate: 0.469218395847; Q3 of Readmission Rate: 0.464717962224; Median of Readmission Rate: 0.4602175286; Q1 of Readmission Rate: 0.455717094977; Min of Readmission Rate: 0.451216661354" role="graphics-symbol" aria-roledescription="box" d="M319.0019664839433,185h6.3006070726576695v30h-6.3006070726576695Z" fill="#eeca3b"/><path aria-label="Readmission Rate: 0.406903564493; Risk Factor: age; upper_box_readmission_rate: 0.459448238381; factor: age; Max of Readmission Rate: 0.482700471012; Q3 of Readmission Rate: 0.459448238381; Median of Readmission Rate: 0.442029531183; Q1 of Readmission Rate: 0.406903564493; Min of Readmission Rate: 0.180124223602" role="graphics-symbol" aria-roledescription="box" d="M284.8324951451476,229.44444444444446h36.78127172131417v30h-36.78127172131417Z" fill="#72b7b2"/><path aria-label="Readmission Rate: 0.524279097565; Risk Factor: weight; upper_box_readmission_rate: 0.570455172414; factor: weight; Max of Readmission Rate: 0.610778443114; Q3 of Readmission Rate: 0.570455172414; Median of Readmission Rate: 0.554672663668; Q1 of Readmission Rate: 0.524279097565; Min of Readmission Rate: 0.456888068257" role="graphics-symbol" aria-roledescription="box" d="M366.99536829523373,7.222222222222221h32.3232523944215v30h-32.3232523944215Z" fill="#9d755d"/><path aria-label="Readmission Rate: 0.421568472843; Risk Factor: admission_type_id; upper_box_readmission_rate: 0.470427483475; factor: admission_type_id; Max of Readmission Rate: 0.532413532414; Q3 of Readmission Rate: 0.470427483475; Median of Readmission Rate: 0.462022316764; Q1 of Readmission Rate: 0.421568472843; Min of Readmission Rate: 0.346875" role="graphics-symbol" aria-roledescription="box" d="M295.09793098990326,140.55555555555554h34.20130744253993v30h-34.20130744253993Z" fill="#e45756"/><path aria-label="Readmission Rate: 0.422330097087; Risk Factor: discharge_disposition_id; upper_box_readmission_rate: 0.504222972973; factor: discharge_disposition_id; Max of Readmission Rate: 0.730158730159; Q3 of Readmission Rate: 0.504222972973; Median of Readmission Rate: 0.47462406015; Q1 of Readmission Rate: 0.422330097087; Min of Readmission Rate: 0" role="graphics-symbol" aria-roledescription="box" d="M295.63106796116506,96.11111111111111h57.325013119916036v30h-57.325013119916036Z" fill="#54a24b"/><path aria-label="Readmission Rate: 0.326194887632; Risk Factor: admission_source_id; upper_box_readmission_rate: 0.466258545622; factor: admission_source_id; Max of Readmission Rate: 0.639751552795; Q3 of Readmission Rate: 0.466258545622; Median of Readmission Rate: 0.413040846663; Q1 of Readmission Rate: 0.326194887632; Min of Readmission Rate: 0.232" role="graphics-symbol" aria-roledescription="box" d="M228.33642134259196,318.3333333333333h98.0445605926202v30h-98.0445605926202Z" fill="#f58518"/><path aria-label="Readmission Rate: 0.467925954449; Risk Factor: max_glu_serum; upper_box_readmission_rate: 0.518430614158; factor: max_glu_serum; Max of Readmission Rate: 0.555379746835; Q3 of Readmission Rate: 0.518430614158; Median of Readmission Rate: 0.481481481481; Q1 of Readmission Rate: 0.467925954449; Min of Readmission Rate: 0.454370427416" role="graphics-symbol" aria-roledescription="box" d="M327.54816811420585,51.66666666666666h35.35326179671773v30h-35.35326179671773Z" fill="#b279a2"/><path aria-label="Readmission Rate: 0.429267296398; Risk Factor: A1Cresult; upper_box_readmission_rate: 0.446650943926; factor: A1Cresult; Max of Readmission Rate: 0.451801363194; Q3 of Readmission Rate: 0.446650943926; Median of Readmission Rate: 0.441500524659; Q1 of Readmission Rate: 0.429267296398; Min of Readmission Rate: 0.417034068136" role="graphics-symbol" aria-roledescription="box" d="M300.4871074783355,273.88888888888886h12.168553270123482v30h-12.168553270123482Z" fill="#4c78a8"/></g><g class="mark-rect role-mark layer_0_layer_1_layer_1_marks" aria-hidden="true"><path d="M283.58599279856514,362.77777777777777h1v30h-1Z" fill="white" opacity="0.7"/><path d="M321.65227002027217,185h1v30h-1Z" fill="white" opacity="0.7"/><path d="M308.9206718278532,229.44444444444446h1v30h-1Z" fill="white" opacity="0.7"/><path d="M387.77086456771616,7.222222222222221h1v30h-1Z" fill="white" opacity="0.7"/><path d="M322.91562173458726,140.55555555555554h1v30h-1Z" fill="white" opacity="0.7"/><path d="M331.7368421052632,96.11111111111111h1v30h-1Z" fill="white" opacity="0.7"/><path d="M288.6285926638006,318.3333333333333h1v30h-1Z" fill="white" opacity="0.7"/><path d="M336.537037037037,51.66666666666666h1v30h-1Z" fill="white" opacity="0.7"/><path d="M308.55036726128014,273.88888888888886h1v30h-1Z" fill="white" opacity="0.7"/></g><g class="mark-rule role-mark layer_1_marks" role="graphics-object" aria-roledescription="rule mark container"><line aria-label="avg: 0.46088084429" role="graphics-symbol" aria-roledescription="rule mark" transform="translate(322.616591002889,0)" x2="0" y2="400" stroke="red" stroke-width="2" stroke-dasharray="6,6"/></g><g class="mark-text role-mark layer_2_marks" role="graphics-object" aria-roledescription="text mark container"><text aria-label="avg: 0.46088084429; label: Overall Avg: 0.461" role="graphics-symbol" aria-roledescription="text mark" text-anchor="end" transform="translate(317.616591002889,9)" font-family="sans-serif" font-size="12px" font-weight="bold" fill="red">Overall Avg: 0.461</text></g><g class="mark-group role-title"><g transform="translate(350,-22)"><path class="background" aria-hidden="true" d="M0,0h0v0h0Z" pointer-events="none"/><g><g class="mark-text role-title-text" role="graphics-symbol" aria-roledescription="title" aria-label="Title text 'Risk Factor Comparison: Distribution of Readmission Rates Across Categories'" pointer-events="none"><text text-anchor="middle" transform="translate(0,13)" font-family="sans-serif" font-size="16px" font-weight="bold" fill="#000" opacity="1">Risk Factor Comparison: Distribution of Readmission Rates Across Categories</text></g></g><path class="foreground" aria-hidden="true" d="" pointer-events="none" display="none"/></g></g></g><path class="foreground" aria-hidden="true" d="" display="none"/></g></g></g></svg>